<svg width="192" height="71" viewBox="0 0 192 71" fill="none" xmlns="http://www.w3.org/2000/svg">
<g clip-path="url(#clip0_53_3578)">
<mask id="mask0_53_3578" style="mask-type:luminance" maskUnits="userSpaceOnUse" x="0" y="0" width="192" height="71">
<path d="M192 0H0V70.324H192V0Z" fill="white"/>
</mask>
<g mask="url(#mask0_53_3578)">
<path d="M35.5768 34.2534L33.6049 34.0328C34.5299 32.614 35.9784 31.8897 36.8705 31.5572C37.3281 31.3893 37.8088 31.2873 38.2927 31.2445C39.2408 31.1589 40.0934 31.1918 40.7979 31.2708C42.4966 31.4552 44.192 30.9153 45.4396 29.7499C50.3447 25.1576 51.9249 17.9382 55.6679 12.1706C59.9969 5.49766 66.7521 0 66.7521 0L68.2829 0.888843L63.3614 9.8497L68.5002 3.5422L69.6063 4.74379L65.139 10.8307L70.3733 6.17911L71.2391 7.20621L65.6394 12.6677L71.091 8.76663L71.7757 10.1164L65.6493 14.3993L70.0343 12.2726L70.5478 13.7804L66.0707 16.1506L69.9059 15.321L70.4523 16.0881L66.4394 18.0468C66.5217 32.3111 50.5324 40.8769 50.5324 40.8769L56.6193 45.3475C49.6106 54.6276 42.467 53.4293 42.467 53.4293L42.7501 46.7104C42.7501 46.7104 29.9935 59.5722 16.3745 55.3321L13.3294 58.5978L12.7565 57.8538L14.6692 54.4268L11.0941 58.0184L9.80032 57.0868L13.1154 53.5149L7.22926 58.1271L6.13631 57.0769L11.4562 53.0014L4.59894 56.7642L3.86811 55.6383L9.84641 51.9874L2.7192 54.4861L1.88961 53.0771L9.42174 50.0024L0 50.4369L0.161309 48.6724C0.161309 48.6724 7.6638 47.3589 13.0627 46.1869C36.8475 41.0185 38.0655 34.5332 35.5768 34.2501V34.2534Z" fill="white"/>
<path d="M70.9609 41.709L78.4931 21.0352H83.2204L90.7525 41.709H86.3511L80.8271 25.7296L75.2735 41.709H70.9609ZM74.2694 37.0705L75.3624 33.851H85.9956L87.0589 37.0705H74.2694Z" fill="white"/>
<path d="M93.4062 41.709V21.0352H97.5411L106.903 35.0657V21.0352H111.038V41.709H106.903L97.5411 27.7081V41.709H93.4062Z" fill="white"/>
<path d="M115.086 41.709V21.0352H122.055C124.458 21.0352 126.44 21.4631 128.007 22.319C129.571 23.175 130.733 24.3765 131.493 25.9238C132.25 27.471 132.629 29.2849 132.629 31.3721C132.629 33.4592 132.25 35.2534 131.493 36.8072C130.736 38.3643 129.574 39.5692 128.007 40.4251C126.44 41.281 124.458 41.709 122.055 41.709H115.086ZM119.221 38.1635H121.848C123.484 38.1635 124.781 37.8935 125.745 37.3504C126.71 36.8072 127.395 36.0303 127.796 35.0163C128.201 34.0024 128.402 32.7876 128.402 31.3688C128.402 29.9499 128.201 28.7352 127.796 27.7212C127.391 26.7073 126.71 25.9238 125.745 25.374C124.781 24.8243 123.481 24.5477 121.848 24.5477H119.221V38.1635Z" fill="white"/>
<path d="M136.027 41.709V21.0352H149.702V24.3733H140.162V29.601H148.817V32.8206H140.162V38.3742H149.702V41.7123H136.027V41.709Z" fill="white"/>
<path d="M151.887 41.709L159.419 21.0352H164.146L171.678 41.709H167.277L161.753 25.7296L156.199 41.709H151.887ZM155.195 37.0705L156.288 33.851H166.921L167.985 37.0705H155.195Z" fill="white"/>
<path d="M174.336 41.709V21.0352H178.471L187.833 35.0657V21.0352H191.968V41.709H187.833L178.471 27.7081V41.709H174.336Z" fill="white"/>
<path d="M81.6958 70.3231C79.4704 70.3231 77.5413 69.8359 75.9151 68.8615C74.2888 67.887 73.0411 66.5274 72.1753 64.7827C71.3095 63.0379 70.875 61.0199 70.875 58.7287C70.875 56.4374 71.3095 54.4161 72.1753 52.6582C73.0411 50.9036 74.2888 49.5341 75.9151 48.5465C77.5413 47.5622 79.4704 47.0684 81.6958 47.0684C84.4348 47.0684 86.6832 47.7531 88.4412 49.1226C90.1958 50.4921 91.2888 52.4212 91.7167 54.9033H86.7721C86.5153 53.7051 85.9524 52.78 85.0866 52.1249C84.2208 51.4731 83.0785 51.1439 81.6662 51.1439C80.3593 51.1439 79.2466 51.45 78.3281 52.0591C77.4064 52.6681 76.7019 53.5405 76.2081 54.6762C75.7143 55.8119 75.4707 57.1584 75.4707 58.7221C75.4707 60.2858 75.7176 61.6289 76.2081 62.7515C76.7019 63.8774 77.4064 64.7432 78.3281 65.3522C79.2499 65.9612 80.3626 66.2674 81.6662 66.2674C83.0785 66.2674 84.2142 65.9612 85.0702 65.3522C85.9261 64.7432 86.4956 63.8905 86.7721 62.7976H91.7167C91.2888 65.1316 90.1958 66.9686 88.4412 68.3051C86.6865 69.645 84.4381 70.3133 81.6958 70.3133V70.3231Z" fill="white"/>
<path d="M95.3744 69.9388V47.4609H103.884C105.705 47.4609 107.209 47.7704 108.398 48.3926C109.586 49.0148 110.468 49.8444 111.048 50.8813C111.627 51.9216 111.913 53.0804 111.913 54.3643C111.913 55.5626 111.63 56.6884 111.061 57.7353C110.495 58.7855 109.616 59.6249 108.427 60.257C107.239 60.8891 105.715 61.2051 103.851 61.2051H99.868V69.9388H95.3711H95.3744ZM99.8713 57.9295H103.598C104.882 57.9295 105.823 57.6201 106.422 56.9979C107.022 56.3757 107.321 55.5527 107.321 54.5256C107.321 53.4985 107.028 52.715 106.439 52.1158C105.85 51.5167 104.901 51.2171 103.598 51.2171H99.8713V57.9295ZM106.998 69.9388L102.406 60.0792H107.255L112.137 69.9388H106.998Z" fill="white"/>
<path d="M126.107 70.3231C123.924 70.3231 122.001 69.8326 120.342 68.845C118.683 67.8607 117.376 66.4978 116.425 64.7498C115.473 63.005 114.996 60.987 114.996 58.6957C114.996 56.4045 115.473 54.3865 116.425 52.6417C117.376 50.897 118.683 49.5308 120.342 48.5465C122.001 47.5622 123.924 47.0684 126.107 47.0684C128.289 47.0684 130.255 47.5622 131.933 48.5465C133.616 49.5308 134.919 50.897 135.851 52.6417C136.783 54.3865 137.247 56.4045 137.247 58.6957C137.247 60.987 136.783 63.005 135.851 64.7498C134.919 66.4945 133.612 67.8607 131.933 68.845C130.251 69.8293 128.309 70.3231 126.107 70.3231ZM126.107 66.2773C127.456 66.2773 128.618 65.9678 129.59 65.3456C130.564 64.7267 131.324 63.851 131.871 62.7285C132.417 61.6059 132.691 60.2595 132.691 58.699C132.691 57.1386 132.417 55.7922 131.871 54.6696C131.324 53.547 130.564 52.6747 129.59 52.0525C128.615 51.4336 127.453 51.1208 126.107 51.1208C124.76 51.1208 123.654 51.4303 122.67 52.0525C121.685 52.6714 120.925 53.547 120.388 54.6696C119.852 55.7922 119.585 57.1386 119.585 58.699C119.585 60.2595 119.852 61.6059 120.388 62.7285C120.925 63.851 121.682 64.7234 122.67 65.3456C123.654 65.9678 124.8 66.2773 126.107 66.2773Z" fill="white"/>
<path d="M144.474 69.9388L138.598 47.4609H143.414L147.203 64.8658L151.729 47.4609H156.707L161.105 64.8658L164.96 47.4609H169.809L163.772 69.9388H158.409L154.172 53.7849L149.804 69.9388H144.474Z" fill="white"/>
<path d="M172.832 69.9388V47.4609H177.329L187.508 62.7128V47.4609H192.005V69.9388H187.508L177.329 54.7165V69.9388H172.832Z" fill="white"/>
</g>
</g>
<defs>
<clipPath id="clip0_53_3578">
<rect width="192" height="71" fill="white"/>
</clipPath>
</defs>
</svg>
